<?xml version="1.0" encoding="utf-8"?>
<svg xmlns="http://www.w3.org/2000/svg" height="512pt" version="1.1" viewBox="0 0 512 512" width="512pt">
<path d="M 0.00 0.00 L 512.00 0.00 L 512.00 512.00 L 0.00 512.00 L 0.00 0.00 Z" fill="transparent" opacity="1.00" stroke="transparent" stroke-width="0.25"/>
<path d="M 195.69 126.79 C 206.41 104.78 233.53 93.50 256.99 99.18 C 259.63 100.08 263.04 100.05 264.94 102.29 C 265.53 103.15 266.09 104.02 266.66 104.90 C 261.89 105.45 256.40 103.71 252.23 106.75 C 239.96 108.40 227.70 111.58 217.08 118.17 C 208.12 123.46 200.20 130.57 194.03 138.95 C 189.95 144.87 186.56 151.31 184.46 158.20 C 181.93 166.10 181.56 174.48 181.67 182.72 L 180.43 182.41 C 179.73 184.22 179.52 186.15 179.39 188.08 C 177.04 189.44 175.74 191.90 173.63 193.50 C 167.78 186.46 164.91 177.12 165.30 168.01 C 165.51 152.54 175.32 137.84 189.24 131.24 C 191.52 129.96 194.80 129.66 195.69 126.79 Z" fill="#522d18" opacity="1.00" stroke="#522d18" stroke-width="0.25"/>
<path d="M 271.41 100.46 C 286.61 94.63 305.49 102.54 311.70 117.66 C 326.58 119.62 338.11 134.94 335.11 149.80 C 334.57 150.70 334.02 151.60 333.45 152.48 C 325.81 133.97 309.85 119.46 291.22 112.44 C 278.92 107.42 265.41 105.99 252.23 106.75 C 256.40 103.71 261.89 105.45 266.66 104.90 C 266.09 104.02 265.53 103.15 264.94 102.29 C 267.32 102.82 269.29 101.21 271.41 100.46 Z" fill="#3b1e0e" opacity="1.00" stroke="#3b1e0e" stroke-width="0.25"/>
<path d="M 217.08 118.17 C 227.70 111.58 239.96 108.40 252.23 106.75 C 265.41 105.99 278.92 107.42 291.22 112.44 C 290.84 114.39 290.48 116.34 290.11 118.29 C 279.33 114.28 267.69 112.86 256.24 113.37 C 247.03 113.42 237.80 115.15 229.21 118.45 C 223.29 120.44 217.76 123.42 212.57 126.85 C 206.52 130.91 200.99 135.84 196.45 141.55 C 195.64 140.68 194.83 139.82 194.03 138.95 C 200.20 130.57 208.12 123.46 217.08 118.17 Z" fill="#a5b3bb" opacity="1.00" stroke="#a5b3bb" stroke-width="0.25"/>
<path d="M 291.22 112.44 C 309.85 119.46 325.81 133.97 333.45 152.48 C 334.02 151.60 334.57 150.70 335.11 149.80 C 335.01 151.61 334.04 153.60 335.16 155.28 L 335.14 155.31 C 335.03 155.57 334.80 156.10 334.68 156.37 C 337.93 166.84 337.99 177.91 337.79 188.76 C 335.57 188.07 333.27 187.73 330.98 187.39 L 330.99 187.33 C 332.43 187.40 333.88 187.47 335.32 187.55 C 335.66 176.53 335.55 165.09 331.15 154.78 C 323.70 137.34 307.87 124.32 290.11 118.29 C 290.48 116.34 290.84 114.39 291.22 112.44 Z" fill="#818d95" opacity="1.00" stroke="#818d95" stroke-width="0.25"/>
<path d="M 229.21 118.45 C 237.80 115.15 247.03 113.42 256.24 113.37 C 259.02 114.64 262.07 114.85 265.07 115.13 C 281.08 116.90 296.51 124.58 306.47 137.42 C 307.40 136.94 308.33 136.46 309.26 135.98 C 316.17 142.19 321.44 150.10 325.58 158.37 C 330.47 167.06 332.91 177.44 330.99 187.33 L 330.98 187.39 C 329.38 193.58 325.27 199.90 318.85 201.77 C 317.15 199.47 318.31 196.53 318.21 193.92 C 318.85 184.23 314.85 175.04 310.05 166.86 C 307.10 161.94 304.71 156.72 302.24 151.56 C 291.75 162.27 277.26 169.82 262.03 169.64 C 252.39 169.73 242.82 166.68 234.87 161.26 C 228.76 175.29 215.76 186.52 200.36 188.62 C 200.20 192.11 199.41 195.51 198.22 198.79 C 197.08 194.50 194.54 190.67 190.73 188.31 C 189.44 187.93 188.15 187.58 186.85 187.26 C 186.69 185.77 186.45 184.30 186.22 182.83 C 185.60 182.65 184.38 182.29 183.76 182.11 C 183.31 167.71 187.27 152.85 196.45 141.55 C 200.99 135.84 206.52 130.91 212.57 126.85 C 217.14 128.98 221.70 125.95 225.39 123.45 C 227.24 122.29 228.38 120.42 229.21 118.45 Z" fill="#532e18" opacity="1.00" stroke="#532e18" stroke-width="0.25"/>
<path d="M 256.24 113.37 C 267.69 112.86 279.33 114.28 290.11 118.29 C 307.87 124.32 323.70 137.34 331.15 154.78 C 335.55 165.09 335.66 176.53 335.32 187.55 C 333.88 187.47 332.43 187.40 330.99 187.33 C 332.91 177.44 330.47 167.06 325.58 158.37 C 321.44 150.10 316.17 142.19 309.26 135.98 C 308.33 136.46 307.40 136.94 306.47 137.42 C 296.51 124.58 281.08 116.90 265.07 115.13 C 262.07 114.85 259.02 114.64 256.24 113.37 Z" fill="#3b1d0d" opacity="1.00" stroke="#3b1d0d" stroke-width="0.25"/>
<path d="M 212.57 126.85 C 217.76 123.42 223.29 120.44 229.21 118.45 C 228.38 120.42 227.24 122.29 225.39 123.45 C 221.70 125.95 217.14 128.98 212.57 126.85 Z" fill="#6c452b" opacity="1.00" stroke="#6c452b" stroke-width="0.25"/>
<path d="M 235.40 140.29 C 236.22 137.66 238.74 135.23 241.62 135.43 C 245.84 136.67 248.34 140.66 251.81 143.10 C 259.75 149.72 269.96 153.55 280.32 153.47 C 284.25 153.30 288.07 152.14 292.02 152.07 C 292.27 154.80 290.74 157.10 288.42 158.39 C 277.27 165.12 263.14 167.80 250.64 163.39 C 246.06 162.16 242.69 158.67 239.31 155.57 C 235.66 151.55 233.71 145.58 235.40 140.29 Z" fill="#75462a" opacity="1.00" stroke="#75462a" stroke-width="0.25"/>
<path d="M 194.03 138.95 C 194.83 139.82 195.64 140.68 196.45 141.55 C 187.27 152.85 183.31 167.71 183.76 182.11 C 183.77 182.51 183.79 183.31 183.79 183.71 C 183.26 183.47 182.20 182.97 181.67 182.72 C 181.56 174.48 181.93 166.10 184.46 158.20 C 186.56 151.31 189.95 144.87 194.03 138.95 Z" fill="#bcbebd" opacity="1.00" stroke="#bcbebd" stroke-width="0.25"/>
<path d="M 262.03 169.64 C 277.26 169.82 291.75 162.27 302.24 151.56 C 304.71 156.72 307.10 161.94 310.05 166.86 C 314.85 175.04 318.85 184.23 318.21 193.92 C 318.31 196.53 317.15 199.47 318.85 201.77 C 325.27 199.90 329.38 193.58 330.98 187.39 C 333.27 187.73 335.57 188.07 337.79 188.76 C 338.11 189.01 338.75 189.50 339.07 189.75 C 348.03 196.18 349.52 211.50 340.62 218.65 C 336.95 222.16 331.50 222.84 326.75 221.47 C 322.52 232.48 317.19 243.40 308.47 251.57 C 299.47 261.45 287.23 267.92 274.39 271.25 C 274.41 275.49 273.10 279.79 274.09 283.98 C 274.98 287.13 278.41 288.14 281.11 289.24 C 285.73 290.84 290.11 293.31 295.03 293.90 C 290.91 297.55 286.23 300.49 281.52 303.31 C 278.85 304.58 275.88 304.88 272.96 304.82 C 263.65 304.70 254.35 304.77 245.04 304.80 C 241.95 304.85 238.84 304.43 235.95 303.29 C 232.09 300.83 228.42 298.08 225.00 295.04 C 228.94 294.50 232.34 292.34 236.01 290.98 C 238.41 290.15 240.47 288.64 242.42 287.05 C 242.26 281.84 242.40 276.60 241.67 271.43 C 227.79 267.55 214.17 260.55 205.11 249.09 C 216.47 251.24 227.63 254.61 239.12 255.98 C 239.20 255.20 239.35 253.62 239.43 252.83 C 239.13 251.32 237.16 251.48 236.05 250.99 C 223.35 248.44 210.68 245.80 197.99 243.20 C 198.53 243.25 199.62 243.36 200.16 243.42 C 196.41 238.37 193.18 232.89 190.99 226.98 C 190.24 225.13 190.13 223.11 190.45 221.16 C 193.13 219.21 195.50 216.69 196.72 213.55 C 198.66 208.88 198.17 203.72 198.22 198.79 C 199.41 195.51 200.20 192.11 200.36 188.62 C 215.76 186.52 228.76 175.29 234.87 161.26 C 242.82 166.68 252.39 169.73 262.03 169.64 Z" fill="#fdbba5" opacity="1.00" stroke="#fdbba5" stroke-width="0.25"/>
<path d="M 198.34 155.39 C 200.92 154.89 203.16 157.10 203.44 159.58 C 204.23 165.29 201.89 171.75 196.73 174.71 C 194.33 176.21 190.79 174.62 190.05 171.96 C 187.70 165.58 191.32 156.76 198.34 155.39 Z" fill="#77452a" opacity="1.00" stroke="#77452a" stroke-width="0.25"/>
<path d="M 334.68 156.37 C 334.80 156.10 335.03 155.57 335.14 155.31 C 342.01 165.25 343.90 178.54 339.07 189.75 C 338.75 189.50 338.11 189.01 337.79 188.76 C 337.99 177.91 337.93 166.84 334.68 156.37 Z" fill="#372517" opacity="1.00" stroke="#372517" stroke-width="0.25"/>
<path d="M 183.76 182.11 C 184.38 182.29 185.60 182.65 186.22 182.83 C 186.45 184.30 186.69 185.77 186.85 187.26 C 186.31 191.17 185.17 195.01 185.31 199.00 C 185.44 206.95 185.26 214.90 185.39 222.85 C 186.30 222.74 187.22 222.61 188.13 222.48 C 187.72 224.22 187.41 225.99 187.18 227.76 C 186.16 227.54 185.14 227.32 184.13 227.10 C 183.82 228.11 183.52 229.14 183.25 230.17 C 182.94 227.88 182.71 225.59 182.52 223.30 C 182.25 223.05 181.71 222.56 181.44 222.32 L 181.32 222.20 C 183.22 218.40 182.34 214.09 182.44 210.02 C 182.23 202.71 182.81 195.38 182.13 188.08 C 181.45 188.08 180.08 188.08 179.39 188.08 C 179.52 186.15 179.73 184.22 180.43 182.41 L 181.67 182.72 C 182.20 182.97 183.26 183.47 183.79 183.71 C 183.79 183.31 183.77 182.51 183.76 182.11 Z" fill="#a6b9c0" opacity="1.00" stroke="#a6b9c0" stroke-width="0.25"/>
<path d="M 179.39 188.08 C 180.08 188.08 181.45 188.08 182.13 188.08 C 182.81 195.38 182.23 202.71 182.44 210.02 C 182.34 214.09 183.22 218.40 181.32 222.20 C 177.57 219.20 174.10 215.58 173.12 210.70 C 171.11 205.24 173.16 199.59 173.33 194.06 L 173.63 193.50 C 175.74 191.90 177.04 189.44 179.39 188.08 Z" fill="#8699a3" opacity="1.00" stroke="#8699a3" stroke-width="0.25"/>
<path d="M 186.85 187.26 C 188.15 187.58 189.44 187.93 190.73 188.31 C 190.40 193.88 189.68 199.44 189.88 205.02 C 190.03 210.73 190.59 216.60 188.75 222.12 C 188.59 222.21 188.29 222.39 188.13 222.48 C 187.22 222.61 186.30 222.74 185.39 222.85 C 185.26 214.90 185.44 206.95 185.31 199.00 C 185.17 195.01 186.31 191.17 186.85 187.26 Z" fill="#8697a1" opacity="1.00" stroke="#8697a1" stroke-width="0.25"/>
<path d="M 190.73 188.31 C 194.54 190.67 197.08 194.50 198.22 198.79 C 198.17 203.72 198.66 208.88 196.72 213.55 C 195.50 216.69 193.13 219.21 190.45 221.16 C 190.02 221.40 189.17 221.88 188.75 222.12 C 190.59 216.60 190.03 210.73 189.88 205.02 C 189.68 199.44 190.40 193.88 190.73 188.31 Z" fill="#758894" opacity="1.00" stroke="#758894" stroke-width="0.25"/>
<path d="M 173.33 194.06 C 173.16 199.59 171.11 205.24 173.12 210.70 C 174.10 215.58 177.57 219.20 181.32 222.20 L 181.44 222.32 C 175.18 220.57 170.30 214.58 170.06 208.05 C 169.07 203.10 171.00 198.32 173.33 194.06 Z" fill="#d8ac9a" opacity="1.00" stroke="#d8ac9a" stroke-width="0.25"/>
<path d="M 327.09 202.88 C 329.38 202.15 332.50 201.55 334.21 203.74 C 335.15 205.87 335.09 208.40 334.52 210.62 C 333.65 211.94 331.97 212.19 330.62 212.74 C 330.37 209.14 330.69 204.93 327.09 202.88 Z" fill="#f89981" opacity="1.00" stroke="#f89981" stroke-width="0.25"/>
<path d="M 228.80 209.78 C 231.19 208.37 234.81 207.69 236.41 210.59 C 239.33 214.08 235.13 219.34 231.03 217.72 C 227.38 216.96 227.10 212.48 228.80 209.78 Z" fill="#43210e" opacity="1.00" stroke="#43210e" stroke-width="0.25"/>
<path d="M 279.25 214.05 C 278.55 210.11 282.87 207.45 286.36 208.86 C 286.26 210.55 286.26 212.24 286.05 213.92 C 286.30 212.47 287.19 211.29 288.20 210.27 C 288.20 212.27 289.05 214.84 287.42 216.50 C 285.15 219.29 279.32 217.91 279.25 214.05 Z" fill="#421e0b" opacity="1.00" stroke="#421e0b" stroke-width="0.25"/>
<path d="M 188.75 222.12 C 189.17 221.88 190.02 221.40 190.45 221.16 C 190.13 223.11 190.24 225.13 190.99 226.98 C 193.18 232.89 196.41 238.37 200.16 243.42 C 199.62 243.36 198.53 243.25 197.99 243.20 C 194.17 242.23 190.29 240.05 188.51 236.38 C 187.12 233.74 187.20 230.66 187.18 227.76 C 187.41 225.99 187.72 224.22 188.13 222.48 C 188.29 222.39 188.59 222.21 188.75 222.12 Z" fill="#fefdfd" opacity="1.00" stroke="#fefdfd" stroke-width="0.25"/>
<path d="M 184.13 227.10 C 185.14 227.32 186.16 227.54 187.18 227.76 C 187.20 230.66 187.12 233.74 188.51 236.38 C 190.29 240.05 194.17 242.23 197.99 243.20 C 210.68 245.80 223.35 248.44 236.05 250.99 C 237.16 251.48 239.13 251.32 239.43 252.83 C 239.35 253.62 239.20 255.20 239.12 255.98 C 227.63 254.61 216.47 251.24 205.11 249.09 C 199.53 247.63 193.34 247.08 188.78 243.19 C 184.75 240.24 182.82 235.05 183.25 230.17 C 183.52 229.14 183.82 228.11 184.13 227.10 Z" fill="#7b8c96" opacity="1.00" stroke="#7b8c96" stroke-width="0.25"/>
<path d="M 249.19 233.06 C 249.58 231.47 251.38 232.47 252.03 233.24 C 254.68 236.03 258.89 235.39 262.20 234.36 C 262.51 233.73 263.14 232.47 263.46 231.84 C 266.40 234.37 265.79 238.74 263.55 241.52 C 260.68 239.54 257.81 236.50 253.98 237.23 C 251.82 237.24 250.43 239.12 248.86 240.32 C 248.57 237.91 247.80 235.28 249.19 233.06 Z" fill="#9b2244" opacity="1.00" stroke="#9b2244" stroke-width="0.25"/>
<path d="M 251.65 232.19 C 255.23 232.24 258.81 232.27 262.38 232.14 C 262.34 232.69 262.24 233.81 262.20 234.36 C 258.89 235.39 254.68 236.03 252.03 233.24 L 251.65 232.19 Z" fill="#fff8f4" opacity="1.00" stroke="#fff8f4" stroke-width="0.25"/>
<path d="M 248.86 240.32 C 250.43 239.12 251.82 237.24 253.98 237.23 C 257.81 236.50 260.68 239.54 263.55 241.52 L 263.78 241.69 C 261.68 242.92 259.58 244.72 256.98 244.42 C 253.85 244.16 251.03 242.52 248.86 240.32 Z" fill="#f87e92" opacity="1.00" stroke="#f87e92" stroke-width="0.25"/>
<path d="M 243.02 271.98 C 247.67 272.22 252.26 273.05 256.91 273.22 C 262.34 273.51 267.65 272.01 273.07 272.06 C 273.11 274.17 273.71 277.22 271.20 278.19 C 262.20 281.16 252.65 283.46 243.14 281.72 C 242.63 278.49 242.69 275.22 243.02 271.98 Z" fill="#fc9c7d" opacity="1.00" stroke="#fc9c7d" stroke-width="0.25"/>
<path d="M 295.03 293.90 C 295.47 293.52 296.34 292.76 296.78 292.39 C 304.26 296.16 313.24 296.97 319.67 302.69 C 318.28 303.67 316.74 304.52 314.98 304.36 C 307.00 304.40 299.02 304.27 291.04 304.39 C 287.83 304.48 284.64 304.04 281.52 303.31 C 286.23 300.49 290.91 297.55 295.03 293.90 Z" fill="#fc8296" opacity="1.00" stroke="#fc8296" stroke-width="0.25"/>
<path d="M 205.73 303.06 C 210.44 297.74 218.24 297.49 224.32 294.45 L 225.00 295.04 C 228.42 298.08 232.09 300.83 235.95 303.29 C 230.76 304.92 225.30 304.29 219.96 304.30 C 215.20 304.20 210.26 304.96 205.73 303.06 Z" fill="#fd8195" opacity="1.00" stroke="#fd8195" stroke-width="0.25"/>
<path d="M 319.67 302.69 L 319.77 302.62 C 320.21 303.50 320.65 304.39 321.09 305.27 C 318.11 305.48 315.12 305.67 312.14 305.76 C 285.75 306.11 259.36 305.19 232.98 305.84 C 223.11 305.59 213.19 306.37 203.35 305.30 C 204.13 304.53 204.87 303.73 205.73 303.06 C 210.26 304.96 215.20 304.20 219.96 304.30 C 225.30 304.29 230.76 304.92 235.95 303.29 C 238.84 304.43 241.95 304.85 245.04 304.80 C 254.35 304.77 263.65 304.70 272.96 304.82 C 275.88 304.88 278.85 304.58 281.52 303.31 C 284.64 304.04 287.83 304.48 291.04 304.39 C 299.02 304.27 307.00 304.40 314.98 304.36 C 316.74 304.52 318.28 303.67 319.67 302.69 Z" fill="#bd8e9a" opacity="1.00" stroke="#bd8e9a" stroke-width="0.25"/>
<path d="M 142.20 310.97 C 142.12 308.36 144.02 305.69 146.67 305.27 C 147.73 305.53 148.79 305.83 149.85 306.13 C 148.23 307.30 145.74 308.03 145.43 310.33 C 144.52 314.83 144.86 319.46 144.78 324.03 C 144.89 352.00 144.85 379.98 144.92 407.95 C 145.54 414.06 144.02 420.60 146.81 426.32 C 145.43 426.30 144.05 426.28 142.68 426.27 C 142.41 424.86 142.12 423.45 142.04 422.03 C 142.28 385.01 141.95 347.99 142.20 310.97 Z" fill="#6a7b82" opacity="1.00" stroke="#6a7b82" stroke-width="0.25"/>
<path d="M 146.67 305.27 C 151.42 304.54 156.22 305.37 160.99 305.12 C 175.11 305.22 189.25 304.88 203.35 305.30 C 213.19 306.37 223.11 305.59 232.98 305.84 C 259.36 305.19 285.75 306.11 312.14 305.76 C 313.83 308.92 317.47 309.82 320.15 311.86 C 324.68 315.75 327.99 320.99 329.31 326.84 C 332.79 335.10 334.19 344.07 333.99 353.00 C 333.74 364.65 334.64 376.37 333.19 387.97 C 332.98 391.20 330.64 393.78 330.25 396.97 C 329.39 401.70 329.55 407.25 325.90 410.89 C 322.45 414.45 319.11 418.11 315.74 421.74 C 314.21 423.72 311.59 423.87 309.35 424.44 C 309.48 424.92 309.72 425.88 309.84 426.36 C 255.50 426.36 201.16 426.46 146.81 426.32 C 144.02 420.60 145.54 414.06 144.92 407.95 C 144.85 379.98 144.89 352.00 144.78 324.03 C 144.86 319.46 144.52 314.83 145.43 310.33 C 145.74 308.03 148.23 307.30 149.85 306.13 C 148.79 305.83 147.73 305.53 146.67 305.27 Z" fill="#8294a0" opacity="1.00" stroke="#8294a0" stroke-width="0.25"/>
<path d="M 312.14 305.76 C 315.12 305.67 318.11 305.48 321.09 305.27 C 335.08 304.58 349.09 305.38 363.09 305.08 C 367.06 304.49 370.52 308.06 370.20 311.98 C 370.12 348.67 370.15 385.36 370.18 422.05 C 370.09 423.48 369.91 424.90 369.65 426.31 C 369.46 425.85 369.09 424.92 368.90 424.46 C 367.11 425.58 365.16 426.60 362.96 426.42 C 345.26 426.34 327.55 426.38 309.84 426.36 C 309.72 425.88 309.48 424.92 309.35 424.44 C 311.59 423.87 314.21 423.72 315.74 421.74 C 319.11 418.11 322.45 414.45 325.90 410.89 C 329.55 407.25 329.39 401.70 330.25 396.97 C 330.64 393.78 332.98 391.20 333.19 387.97 C 334.64 376.37 333.74 364.65 333.99 353.00 C 334.19 344.07 332.79 335.10 329.31 326.84 C 327.99 320.99 324.68 315.75 320.15 311.86 C 317.47 309.82 313.83 308.92 312.14 305.76 Z" fill="#768893" opacity="1.00" stroke="#768893" stroke-width="0.25"/>
<path d="M 252.27 356.40 C 259.46 353.69 267.90 359.49 268.50 367.05 C 270.00 374.79 262.68 382.34 254.97 381.51 C 248.02 381.17 242.41 374.12 243.39 367.29 C 244.08 362.41 247.54 357.94 252.27 356.40 Z" fill="#b0bfc6" opacity="1.00" stroke="#b0bfc6" stroke-width="0.25"/>
<path d="M 362.96 426.42 C 365.16 426.60 367.11 425.58 368.90 424.46 C 369.09 424.92 369.46 425.85 369.65 426.31 C 379.10 426.15 388.55 426.32 398.00 426.22 C 400.27 426.31 402.74 425.96 404.83 427.07 C 405.94 428.44 406.69 430.05 407.05 431.78 C 407.20 434.96 404.28 437.87 401.11 437.59 C 304.44 437.60 207.76 437.60 111.09 437.59 C 107.71 437.93 104.80 434.62 105.18 431.32 C 105.81 429.92 106.53 428.56 107.35 427.27 C 109.31 426.03 111.73 426.32 113.93 426.22 C 123.51 426.30 133.10 426.23 142.68 426.27 C 144.05 426.28 145.43 426.30 146.81 426.32 C 201.16 426.46 255.50 426.36 309.84 426.36 C 327.55 426.38 345.26 426.34 362.96 426.42 Z" fill="#3d4b54" opacity="1.00" stroke="#3d4b54" stroke-width="0.25"/>
<path d="M 26.36 427.40 C 31.69 426.34 37.24 426.54 42.59 427.37 C 42.63 428.55 42.68 429.74 42.73 430.93 C 37.32 431.89 31.68 431.81 26.26 431.02 C 26.30 429.81 26.33 428.60 26.36 427.40 Z" fill="#bac4c8" opacity="1.00" stroke="#bac4c8" stroke-width="0.25"/>
<path d="M 56.07 431.49 C 52.74 431.85 52.48 426.69 55.88 426.80 C 67.91 426.64 79.96 426.79 91.99 426.76 C 97.11 426.90 102.28 426.36 107.35 427.27 C 106.53 428.56 105.81 429.92 105.18 431.32 C 88.83 431.83 72.43 431.43 56.07 431.49 Z" fill="#bac7cb" opacity="1.00" stroke="#bac7cb" stroke-width="0.25"/>
<path d="M 404.83 427.07 C 422.84 426.35 440.90 427.05 458.94 426.69 C 461.51 426.58 464.09 426.82 466.63 427.33 C 466.64 428.51 466.67 429.70 466.70 430.89 C 465.46 431.19 464.22 431.42 462.96 431.56 C 444.33 431.70 425.67 431.18 407.05 431.78 C 406.69 430.05 405.94 428.44 404.83 427.07 Z" fill="#b9c5cb" opacity="1.00" stroke="#b9c5cb" stroke-width="0.25"/>
<path d="M 477.41 427.49 C 480.01 426.94 483.00 425.90 485.42 427.62 C 485.62 428.69 485.77 429.77 485.89 430.87 C 483.62 431.49 481.25 431.85 478.92 431.41 C 477.14 430.82 477.53 428.92 477.41 427.49 Z" fill="#bdc8ca" opacity="1.00" stroke="#bdc8ca" stroke-width="0.25"/>
<path d="M 117.49 435.54 C 117.05 433.42 116.90 430.88 119.77 430.88 C 120.21 431.28 121.09 432.10 121.53 432.51 C 121.42 433.42 121.31 434.34 121.20 435.26 C 119.96 435.35 118.72 435.44 117.49 435.54 Z" fill="#a5b3bc" opacity="1.00" stroke="#a5b3bc" stroke-width="0.25"/>
</svg>